<svg width="48" height="48" viewBox="0 0 48 48" fill="none" xmlns="http://www.w3.org/2000/svg">
<circle cx="24" cy="24" r="24" fill="#E5E7EB"/>
<path d="M37.4519 21.3145H36.3472V21.2576H24.0043V26.7433H31.755C30.6242 29.9366 27.5858 32.229 24.0043 32.229C19.4601 32.229 15.7758 28.5446 15.7758 24.0004C15.7758 19.4562 19.4601 15.7718 24.0043 15.7718C26.1019 15.7718 28.0103 16.5632 29.4633 17.8557L33.3424 13.9766C30.893 11.6939 27.6167 10.2861 24.0043 10.2861C16.4306 10.2861 10.29 16.4267 10.29 24.0004C10.29 31.5741 16.4306 37.7147 24.0043 37.7147C31.578 37.7147 37.7186 31.5741 37.7186 24.0004C37.7186 23.0809 37.624 22.1833 37.4519 21.3145Z" fill="#FFC107"/>
<path d="M11.8711 17.6171L16.3769 20.9216C17.5961 17.903 20.5488 15.7718 24.0041 15.7718C26.1017 15.7718 28.0101 16.5632 29.4631 17.8557L33.3422 13.9766C30.8928 11.6939 27.6165 10.2861 24.0041 10.2861C18.7365 10.2861 14.1682 13.2601 11.8711 17.6171Z" fill="#FF3D00"/>
<path d="M24.0041 37.7147C27.5465 37.7147 30.7652 36.359 33.1988 34.1544L28.9542 30.5627C27.5311 31.645 25.792 32.2304 24.0041 32.229C20.437 32.229 17.4082 29.9544 16.2672 26.7803L11.7949 30.226C14.0646 34.6674 18.674 37.7147 24.0041 37.7147Z" fill="#4CAF50"/>
<path d="M37.4514 21.3138H36.3468V21.2568H24.0039V26.7426H31.7545C31.2136 28.2624 30.2393 29.5904 28.952 30.5627L28.9541 30.5613L33.1986 34.1531C32.8983 34.426 37.7182 30.8568 37.7182 23.9997C37.7182 23.0802 37.6236 22.1826 37.4514 21.3138Z" fill="#1976D2"/>
</svg>
