<svg width="16" height="14" viewBox="0 0 16 14" fill="none" xmlns="http://www.w3.org/2000/svg">
<path d="M4.99967 6.33333H3.06634C2.69297 6.33333 2.50629 6.33333 2.36368 6.406C2.23824 6.46991 2.13625 6.5719 2.07234 6.69734C1.99967 6.83995 1.99967 7.02663 1.99967 7.4V13M10.9997 6.33333H12.933C13.3064 6.33333 13.4931 6.33333 13.6357 6.406C13.7611 6.46991 13.8631 6.5719 13.927 6.69734C13.9997 6.83995 13.9997 7.02663 13.9997 7.4V13M10.9997 13V3.13333C10.9997 2.3866 10.9997 2.01323 10.8544 1.72801C10.7265 1.47713 10.5225 1.27316 10.2717 1.14532C9.98645 1 9.61308 1 8.86634 1H7.13301C6.38627 1 6.0129 1 5.72769 1.14532C5.4768 1.27316 5.27283 1.47713 5.145 1.72801C4.99967 2.01323 4.99967 2.3866 4.99967 3.13333V13M14.6663 13H1.33301M7.33301 3.66667H8.66634M7.33301 6.33333H8.66634M7.33301 9H8.66634" stroke="#4D5761" stroke-width="1.33333" stroke-linecap="round" stroke-linejoin="round"/>
</svg>
