<svg width="80" height="80" viewBox="0 0 80 80" fill="none" xmlns="http://www.w3.org/2000/svg">
<g id="check (1) 1" clip-path="url(#clip0_5732_8542)">
<g id="&#229;&#155;&#190;&#229;&#177;&#130;_x0020_1">
<path id="Vector" d="M40 80C62.0914 80 80 62.0914 80 40C80 17.9086 62.0914 0 40 0C17.9086 0 0 17.9086 0 40C0 62.0914 17.9086 80 40 80Z" fill="#D0FC4A"/>
<path id="Vector_2" fill-rule="evenodd" clip-rule="evenodd" d="M27.5101 59.5079L12.8808 43.8503C10.878 41.7067 10.993 38.3152 13.1366 36.3124C15.2802 34.3095 18.6717 34.4248 20.6745 36.5681L31.9589 48.6456L49.8207 31.9568C49.9813 31.8065 50.1492 31.6689 50.3227 31.5423L58.7224 23.6944C60.866 21.6916 64.2578 21.8069 66.2604 23.9505C68.2632 26.0938 68.1479 29.4856 66.0046 31.4884L40.3498 55.4585L40.3224 55.4292L31.4481 63.7209L27.5101 59.5079Z" fill="#0B0F00"/>
</g>
</g>
<defs>
<clipPath id="clip0_5732_8542">
<rect width="80" height="80" fill="white"/>
</clipPath>
</defs>
</svg>
