<svg width="20" height="21" viewBox="0 0 20 21" fill="none" xmlns="http://www.w3.org/2000/svg">
<path d="M4.16667 12.9993C3.3901 12.9993 3.00182 12.9993 2.69553 12.8725C2.28715 12.7033 1.9627 12.3789 1.79354 11.9705C1.66667 11.6642 1.66667 11.2759 1.66667 10.4993V4.83268C1.66667 3.89926 1.66667 3.43255 1.84833 3.07603C2.00812 2.76243 2.26308 2.50746 2.57669 2.34767C2.93321 2.16602 3.39992 2.16602 4.33334 2.16602H10C10.7766 2.16602 11.1649 2.16602 11.4711 2.29288C11.8795 2.46204 12.204 2.7865 12.3731 3.19488C12.5 3.50116 12.5 3.88945 12.5 4.66602M10.1667 18.8327H15.6667C16.6001 18.8327 17.0668 18.8327 17.4233 18.651C17.7369 18.4912 17.9919 18.2363 18.1517 17.9227C18.3333 17.5661 18.3333 17.0994 18.3333 16.166V10.666C18.3333 9.73259 18.3333 9.26588 18.1517 8.90937C17.9919 8.59576 17.7369 8.34079 17.4233 8.18101C17.0668 7.99935 16.6001 7.99935 15.6667 7.99935H10.1667C9.23325 7.99935 8.76654 7.99935 8.41002 8.18101C8.09642 8.34079 7.84145 8.59576 7.68166 8.90937C7.50001 9.26588 7.50001 9.7326 7.50001 10.666V16.166C7.50001 17.0994 7.50001 17.5661 7.68166 17.9227C7.84145 18.2363 8.09642 18.4912 8.41002 18.651C8.76654 18.8327 9.23325 18.8327 10.1667 18.8327Z" stroke="#6C737F" stroke-width="1.66667" stroke-linecap="round" stroke-linejoin="round"/>
</svg>
