<svg width="64" height="64" viewBox="0 0 64 64" fill="none" xmlns="http://www.w3.org/2000/svg">
<g clip-path="url(#clip0_4618_212183)">
<circle cx="32" cy="33" r="27" fill="#0B0F00"/>
<path fill-rule="evenodd" clip-rule="evenodd" d="M32 64C14.3551 64 0 49.6449 0 32C0 14.3551 14.3551 0 32 0C49.6449 0 64 14.3551 64 32C64 49.6449 49.6449 64 32 64ZM48.5947 43.2414C48.9893 43.2414 49.3104 42.9204 49.3104 42.5257V22.4361L33.0291 35.3651C32.7279 35.6045 32.3638 35.7241 31.9999 35.7241C31.636 35.7241 31.272 35.6044 30.9706 35.3651L14.6895 22.4361V42.5257C14.6895 42.9204 15.0106 43.2414 15.4051 43.2414H48.5947ZM46.0998 20.7586L32 31.9555L17.9001 20.7586H46.0998ZM52.6208 21.4743V42.526C52.6208 44.7459 50.8146 46.552 48.5947 46.552H15.4051C13.1851 46.552 11.3792 44.7459 11.3792 42.526V21.4743C11.3792 19.2544 13.1852 17.4484 15.4051 17.4484H48.5947C50.8146 17.4482 52.6208 19.2544 52.6208 21.4743Z" fill="#D0FC4A"/>
</g>
<defs>
<clipPath id="clip0_4618_212183">
<rect width="64" height="64" fill="white"/>
</clipPath>
</defs>
</svg>
