<svg width="64" height="64" viewBox="0 0 64 64" fill="none" xmlns="http://www.w3.org/2000/svg">
<g clip-path="url(#clip0_3780_239054)">
<path d="M47.6203 23.3114C45.9165 20.5284 43.5325 19.106 40.5345 19.0836C38.6983 19.0666 36.8788 19.6011 35.2639 20.6198L32.0004 22.6641L28.7418 20.6228C27.1423 19.6139 25.3451 19.0833 23.5353 19.0833C23.5123 19.0833 23.4893 19.0834 23.4663 19.0835C20.4684 19.1059 18.0844 20.5284 16.3805 23.3113C14.6661 26.1114 14.6328 29.454 16.2888 32.4821C17.7531 35.1599 20.206 37.4678 22.5781 39.6998C23.0123 40.1083 23.4611 40.5306 23.8935 40.9458C25.4455 42.4361 27.0305 43.8853 28.5633 45.2866C29.69 46.3168 30.8446 47.3725 32.0004 48.4571C33.1561 47.3725 34.3108 46.3169 35.4375 45.2866C36.9703 43.8853 38.5553 42.4361 40.1073 40.9458C40.5398 40.5306 40.9885 40.1083 41.4226 39.6998C43.7948 37.4679 46.2476 35.16 47.712 32.4821C49.3681 29.454 49.3346 26.1114 47.6203 23.3114Z" fill="#AAA9F6"/>
<path d="M54.6275 9.3725C48.5835 3.32863 40.5475 0 32 0C23.4525 0 15.4165 3.32863 9.3725 9.3725C3.32863 15.4165 0 23.4525 0 32C0 40.5475 3.32863 48.5835 9.3725 54.6275C15.4165 60.6714 23.4525 64 32 64C40.5475 64 48.5835 60.6714 54.6275 54.6275C60.6714 48.5835 64 40.5475 64 32C64 23.4525 60.6714 15.4165 54.6275 9.3725ZM51.0019 34.2815C49.2514 37.4824 46.5778 39.9981 43.992 42.4309C43.545 42.8515 43.1229 43.2486 42.7041 43.6507C41.119 45.1727 39.5168 46.6376 37.9674 48.0542C36.4349 49.4554 34.8504 50.9041 33.2986 52.3941L32 53.6411L30.7014 52.3941C29.1496 50.9041 27.565 49.4554 26.0326 48.0542C24.4832 46.6376 22.8811 45.1727 21.2959 43.6507C20.8771 43.2487 20.455 42.8515 20.008 42.4309C17.4224 39.9981 14.7487 37.4824 12.9981 34.2815C10.6799 30.0425 10.7469 25.3305 13.1818 21.3533C16.2029 16.4188 20.4266 15.3561 23.4377 15.3336C25.9909 15.3138 28.514 16.0457 30.737 17.4479L32 18.2391L33.2679 17.4449C35.486 16.0458 38.014 15.3134 40.5621 15.3337C43.5734 15.3562 47.797 16.4189 50.8181 21.3534C53.2531 25.3305 53.32 30.0425 51.0019 34.2815Z" fill="#AAA9F6"/>
</g>
<defs>
<clipPath id="clip0_3780_239054">
<rect width="64" height="64" fill="white"/>
</clipPath>
</defs>
</svg>
