<svg width="34" height="30" viewBox="0 0 34 30" fill="none" xmlns="http://www.w3.org/2000/svg">
<path d="M32.6203 4.31138C30.9165 1.52838 28.5325 0.106005 25.5345 0.08363C23.6983 0.06663 21.8788 0.601128 20.2639 1.61975L17.0004 3.66413L13.7418 1.62275C12.1423 0.613878 10.3451 0.0832542 8.53526 0.0832542C8.51226 0.0832542 8.48926 0.0833791 8.46626 0.0835041C5.46839 0.105879 3.08439 1.52838 1.38051 4.31125C-0.333862 7.11138 -0.367236 10.454 1.28876 13.4821C2.75314 16.1599 5.20601 18.4678 7.57814 20.6998C8.01226 21.1083 8.46114 21.5306 8.89351 21.9458C10.4455 23.4361 12.0305 24.8853 13.5633 26.2866C14.69 27.3168 15.8446 28.3725 17.0004 29.4571C18.1561 28.3725 19.3108 27.3169 20.4375 26.2866C21.9703 24.8853 23.5553 23.4361 25.1073 21.9458C25.5398 21.5306 25.9885 21.1083 26.4226 20.6998C28.7948 18.4679 31.2476 16.16 32.712 13.4821C34.3681 10.454 34.3346 7.11138 32.6203 4.31138Z" fill="#AAA9F6"/>
</svg>
