<svg width="48" height="48" viewBox="0 0 48 48" fill="none" xmlns="http://www.w3.org/2000/svg">
<circle cx="24" cy="24" r="24" fill="#F4FFC7"/>
<g clip-path="url(#clip0_3733_193939)">
<path d="M25.8398 23.1056C26.3876 23.6206 26.8647 24.2098 27.2686 24.872C28.2895 24.2324 29.4954 23.8619 30.7864 23.8619C31.3333 23.8619 31.8647 23.9288 32.3734 24.0539C31.5554 22.9832 30.5701 22.1905 29.324 21.6035C28.3896 22.456 27.1768 23.008 25.8398 23.1056Z" fill="#0B0F00"/>
<path d="M24.1418 30.5054C24.1418 28.6507 24.9059 26.9714 26.1355 25.7649C25.4428 24.5643 24.4975 23.6599 23.2695 23.0234C22.2576 23.72 21.0328 24.1285 19.7142 24.1285C18.3994 24.1285 17.1778 23.7224 16.1676 23.0295C13.6091 24.4132 12 27.2929 12 30.618V35.719H26.6716C25.1316 34.501 24.1418 32.6167 24.1418 30.5054Z" fill="#0B0F00"/>
<path d="M25.9995 17.8423C25.9995 19.1886 25.5738 20.4374 24.8502 21.4613L24.8867 21.6571C25.0607 21.6779 25.2365 21.6884 25.4126 21.6884C27.8263 21.6884 29.79 19.7247 29.79 17.311C29.79 14.8973 27.8263 12.9336 25.4126 12.9336C24.9038 12.9336 24.4056 13.0209 23.9355 13.1892C25.2027 14.34 25.9995 15.9998 25.9995 17.8423Z" fill="#0B0F00"/>
<path d="M20.8305 22.5626C23.4391 21.946 25.054 19.3314 24.4373 16.7227C23.8207 14.1141 21.2061 12.4993 18.5974 13.1159C15.9888 13.7325 14.3739 16.3471 14.9905 18.9558C15.6072 21.5644 18.2218 23.1792 20.8305 22.5626Z" fill="#0B0F00"/>
<path d="M36.0003 30.5065C36.0003 27.6318 33.6615 25.293 30.7868 25.293C27.912 25.293 25.5732 27.6318 25.5732 30.5065C25.5732 33.3813 27.912 35.7201 30.7868 35.7201C33.6615 35.7201 36.0003 33.3813 36.0003 30.5065ZM27.7501 31.2221V29.7909H30.0712V27.4699H31.5023V29.7909H33.8234V31.2221H31.5023V33.5432H30.0712V31.2221H27.7501Z" fill="#0B0F00"/>
</g>
<defs>
<clipPath id="clip0_3733_193939">
<rect width="24" height="24" fill="white" transform="translate(12 12)"/>
</clipPath>
</defs>
</svg>
