<svg width="48" height="48" viewBox="0 0 48 48" fill="none" xmlns="http://www.w3.org/2000/svg">
<circle cx="24" cy="24" r="24" fill="#F4FFC7"/>
<g clip-path="url(#clip0_3733_193973)">
<path d="M22.1399 18.1309L29.8707 25.8617L24.5206 31.2118C24.9515 31.2585 25.3701 31.4465 25.7006 31.777C26.5026 32.579 26.4683 33.9011 25.5973 34.6587C24.8646 35.2959 23.7567 35.2973 23.0226 34.6625C22.6252 34.3189 22.4015 33.8586 22.3499 33.3826L19.8465 35.886C19.6936 36.0389 19.4457 36.0389 19.2928 35.886L17.1983 33.7914C17.0323 33.6255 17.0904 33.3442 17.3087 33.2565C17.5478 33.1606 17.772 33.0155 17.9656 32.8219C18.7352 32.0523 18.7348 30.8053 17.9656 30.0361C17.1964 29.2668 15.9493 29.2665 15.1797 30.0361C14.9861 30.2296 14.841 30.4539 14.7452 30.693C14.6575 30.9112 14.3762 30.9694 14.2102 30.8034L12.1157 28.7088C11.9628 28.5559 11.9628 28.308 12.1157 28.1551L14.6191 25.6517C14.1878 25.6054 13.7696 25.417 13.4391 25.0865C12.6371 24.2845 12.6714 22.9624 13.5424 22.2048C14.2751 21.5676 15.383 21.5661 16.1171 22.201C16.5144 22.5446 16.7382 23.0049 16.7897 23.4809L22.1399 18.1309Z" fill="#0B0F00"/>
<path d="M34.6591 23.0198C34.3169 22.6229 33.8581 22.3986 33.3838 22.3457L35.884 19.8455C36.0369 19.6926 36.0369 19.4446 35.884 19.2917L33.381 16.7888C33.8567 16.7373 34.3172 16.5135 34.6608 16.1162C35.2957 15.3818 35.2942 14.2741 34.6573 13.5415C33.8996 12.6702 32.5774 12.6357 31.7751 13.4381C31.4447 13.7684 31.2567 14.1869 31.21 14.6178L28.7069 12.1147C28.554 11.9618 28.3061 11.9618 28.1532 12.1147L26.0587 14.2091C25.8925 14.3753 25.9509 14.6563 26.169 14.7439C26.4082 14.8401 26.6323 14.9851 26.826 15.1787C27.5956 15.9483 27.5952 17.1954 26.826 17.9646C26.0568 18.7338 24.8097 18.7342 24.0401 17.9646C23.8465 17.7709 23.7015 17.5467 23.6054 17.3075C23.5177 17.0895 23.2367 17.0311 23.0706 17.1973L20.6992 19.5686L23.0049 21.8743C23.1993 22.0688 23.1375 22.3965 22.8865 22.5087C22.6318 22.6227 22.3964 22.7934 22.1994 23.0213C21.5645 23.7556 21.566 24.8634 22.2031 25.596C22.9607 26.4672 24.2829 26.5017 25.0852 25.6994C25.2601 25.5244 25.3952 25.3247 25.4904 25.1116C25.6025 24.8609 25.9304 24.7998 26.1245 24.9939L28.4301 27.2995L31.2071 24.5224C31.2549 24.951 31.4427 25.367 31.7714 25.6957C32.5737 26.4981 33.896 26.4635 34.6536 25.5922C35.2898 24.8603 35.2922 23.7543 34.6591 23.0198Z" fill="#0B0F00"/>
</g>
<defs>
<clipPath id="clip0_3733_193973">
<rect width="24" height="24" fill="white" transform="translate(12 12)"/>
</clipPath>
</defs>
</svg>
