<svg width="48" height="48" viewBox="0 0 48 48" fill="none" xmlns="http://www.w3.org/2000/svg">
<circle cx="24" cy="24" r="24" fill="#F4FFC7"/>
<g clip-path="url(#clip0_3733_193958)">
<path d="M35.828 26.3049L34.3122 24.5574C35.4047 23.1907 36 21.5008 36 19.7344C36 15.4696 32.5304 12 28.2656 12C24.0008 12 20.5312 15.4696 20.5312 19.7344C20.5312 23.9991 24.0009 27.4688 28.2656 27.4688H35.2969C35.5722 27.4688 35.8222 27.308 35.9365 27.0576C36.0509 26.8071 36.0084 26.5129 35.828 26.3049ZM28.2656 24.5156C27.8773 24.5156 27.5625 24.2008 27.5625 23.8125C27.5625 23.4242 27.8773 23.1094 28.2656 23.1094C28.6539 23.1094 28.9688 23.4242 28.9688 23.8125C28.9688 24.2008 28.654 24.5156 28.2656 24.5156ZM30.2219 19.4607C29.8793 19.8215 29.4428 20.0784 28.9688 20.2072V21.6837C28.9688 22.072 28.654 22.3868 28.2657 22.3868C27.8774 22.3868 27.5625 22.072 27.5625 21.6837V19.5982C27.5625 19.2099 27.8774 18.8951 28.2657 18.8951C28.623 18.8951 28.9555 18.7521 29.2021 18.4924C29.4484 18.233 29.5738 17.8927 29.5552 17.5342C29.5203 16.8629 28.9657 16.3263 28.2927 16.3128C28.2839 16.3126 28.275 16.3125 28.2662 16.3125C27.6233 16.3125 27.0758 16.7855 26.9869 17.4228C26.9786 17.4822 26.9744 17.5431 26.9744 17.6038C26.9744 17.9921 26.6596 18.3069 26.2713 18.3069C25.883 18.3069 25.5682 17.9921 25.5682 17.6038C25.5682 17.4783 25.5769 17.352 25.5941 17.2285C25.7827 15.8774 26.9565 14.8788 28.321 14.9068C29.7277 14.9352 30.8866 16.0572 30.9595 17.4613C30.9983 18.2087 30.7363 18.9188 30.2219 19.4607Z" fill="#0B0F00"/>
<path d="M22.0781 27.5628H17.3906C17.0023 27.5628 16.6875 27.248 16.6875 26.8597C16.6875 26.4714 17.0023 26.1565 17.3906 26.1565H21.7685C20.3156 24.6868 19.3559 22.7284 19.162 20.5527C15.1636 20.8466 12 24.1937 12 28.2659C12 30.0324 12.5953 31.7222 13.6878 33.089L12.172 34.8364C11.9916 35.0445 11.9492 35.3386 12.0635 35.5891C12.1778 35.8396 12.4278 36.0003 12.7031 36.0003H19.7344C23.8067 36.0003 27.1537 32.8368 27.4476 28.8383C25.6976 28.6823 24.0884 28.0307 22.7607 27.0258C22.6859 27.3338 22.4091 27.5628 22.0781 27.5628ZM22.0781 30.3753H17.3906C17.0023 30.3753 16.6875 30.0605 16.6875 29.6722C16.6875 29.2839 17.0023 28.969 17.3906 28.969H22.0781C22.4664 28.969 22.7813 29.2839 22.7813 29.6722C22.7813 30.0605 22.4664 30.3753 22.0781 30.3753Z" fill="#0B0F00"/>
</g>
<defs>
<clipPath id="clip0_3733_193958">
<rect width="24" height="24" fill="white" transform="translate(12 12)"/>
</clipPath>
</defs>
</svg>
