<svg width="48" height="48" viewBox="0 0 48 48" fill="none" xmlns="http://www.w3.org/2000/svg">
<circle cx="24" cy="24" r="24" fill="#F4FFC7"/>
<path d="M27 18.5C26.448 18.5 26 18.052 26 17.5V16H22V17.5C22 18.052 21.552 18.5 21 18.5C20.448 18.5 20 18.052 20 17.5V16C20 14.897 20.897 14 22 14H26C27.103 14 28 14.897 28 16V17.5C28 18.052 27.552 18.5 27 18.5Z" fill="#0B0F00"/>
<path d="M24.71 27.3791C24.53 27.4491 24.27 27.4991 24 27.4991C23.73 27.4991 23.47 27.4491 23.23 27.3591L12 23.6191V31.2491C12 32.7691 13.23 33.9991 14.75 33.9991H33.25C34.77 33.9991 36 32.7691 36 31.2491V23.6191L24.71 27.3791Z" fill="#0B0F00"/>
<path d="M36 19.75V22.04L24.24 25.96C24.16 25.99 24.08 26 24 26C23.92 26 23.84 25.99 23.76 25.96L12 22.04V19.75C12 18.23 13.23 17 14.75 17H33.25C34.77 17 36 18.23 36 19.75Z" fill="#0B0F00"/>
<g clip-path="url(#clip0_3733_193903)">
<path d="M33 40C36.866 40 40 36.866 40 33C40 29.134 36.866 26 33 26C29.134 26 26 29.134 26 33C26 36.866 29.134 40 33 40Z" fill="#E24C4B"/>
<path d="M36.1937 36.1937C35.9312 36.4562 35.4937 36.4562 35.2312 36.1937L33 33.9625L30.7687 36.1937C30.5063 36.4562 30.0687 36.4562 29.8062 36.1937C29.5438 35.9312 29.5438 35.4937 29.8062 35.2312L32.0375 33L29.8062 30.7687C29.5438 30.5063 29.5438 30.0687 29.8062 29.8062C30.0687 29.5438 30.5063 29.5438 30.7687 29.8062L33 32.0375L35.2312 29.8062C35.4937 29.5438 35.9312 29.5438 36.1937 29.8062C36.4562 30.0687 36.4562 30.5063 36.1937 30.7687L33.9625 33L36.1937 35.2312C36.4562 35.4937 36.4562 35.9312 36.1937 36.1937Z" fill="white"/>
</g>
<defs>
<clipPath id="clip0_3733_193903">
<rect width="14" height="14" fill="white" transform="translate(26 26)"/>
</clipPath>
</defs>
</svg>
