<svg width="48" height="48" viewBox="0 0 48 48" fill="none" xmlns="http://www.w3.org/2000/svg">
<circle cx="24" cy="24" r="24" fill="#D0FC4A"/>
<path d="M27 18.5C26.448 18.5 26 18.052 26 17.5V16H22V17.5C22 18.052 21.552 18.5 21 18.5C20.448 18.5 20 18.052 20 17.5V16C20 14.897 20.897 14 22 14H26C27.103 14 28 14.897 28 16V17.5C28 18.052 27.552 18.5 27 18.5Z" fill="#0B0F00"/>
<path d="M24.71 27.3791C24.53 27.4491 24.27 27.4991 24 27.4991C23.73 27.4991 23.47 27.4491 23.23 27.3591L12 23.6191V31.2491C12 32.7691 13.23 33.9991 14.75 33.9991H33.25C34.77 33.9991 36 32.7691 36 31.2491V23.6191L24.71 27.3791Z" fill="#0B0F00"/>
<path d="M36 19.75V22.04L24.24 25.96C24.16 25.99 24.08 26 24 26C23.92 26 23.84 25.99 23.76 25.96L12 22.04V19.75C12 18.23 13.23 17 14.75 17H33.25C34.77 17 36 18.23 36 19.75Z" fill="#0B0F00"/>
<g clip-path="url(#clip0_3733_193921)">
<circle cx="33" cy="33" r="5" fill="white"/>
<path fill-rule="evenodd" clip-rule="evenodd" d="M33 40.0001C36.8598 40.0001 40 36.8597 40 33C40 29.1404 36.8598 26 33 26C29.1402 26 26 29.1404 26 33C26 36.8597 29.1402 40.0001 33 40.0001ZM36.9572 31.2918L32.4803 35.7687C32.3396 35.9093 32.1489 35.9885 31.95 35.9885C31.7511 35.9885 31.5603 35.9093 31.4197 35.7687L29.0428 33.3919C28.7501 33.0991 28.75 32.624 29.0429 32.3313C29.3358 32.0386 29.8106 32.0385 30.1034 32.3314L31.95 34.1778L35.8965 30.2314C36.1893 29.9386 36.6642 29.9386 36.9571 30.2313C37.2499 30.524 37.2499 30.9991 36.9572 31.2918Z" fill="#12B76A"/>
</g>
<defs>
<clipPath id="clip0_3733_193921">
<rect width="14" height="14" fill="white" transform="translate(26 26)"/>
</clipPath>
</defs>
</svg>
