<svg width="720" height="184" viewBox="0 0 720 184" fill="none" xmlns="http://www.w3.org/2000/svg">
<g clip-path="url(#clip0_4630_209945)">
<rect width="720" height="184" rx="8" fill="#1A2121"/>
<line opacity="0.4" x1="563.646" y1="304.646" x2="929.646" y2="-61.3536" stroke="#DAFB6A"/>
<line opacity="0.3" x1="506.646" y1="304.646" x2="872.646" y2="-61.3536" stroke="#DAFB6A"/>
<line opacity="0.2" x1="437.646" y1="314.646" x2="803.646" y2="-51.3536" stroke="#DAFB6A"/>
<path d="M601.5 26.3333L598.167 22.9999M588.583 35.9166L591.404 35.6032C591.748 35.5649 591.92 35.5458 592.082 35.4937C592.224 35.4474 592.36 35.3821 592.486 35.2994C592.627 35.2062 592.75 35.0836 592.995 34.8385L604 23.8333C604.92 22.9128 604.92 21.4204 604 20.4999C603.08 19.5795 601.587 19.5795 600.667 20.4999L589.661 31.5052C589.416 31.7503 589.294 31.8729 589.201 32.0142C589.118 32.1396 589.052 32.2755 589.006 32.4184C588.954 32.5794 588.935 32.7517 588.897 33.0963L588.583 35.9166Z" stroke="#DAFB6A" stroke-width="1.66667" stroke-linecap="round" stroke-linejoin="round"/>
<path d="M615.504 33V22.8182H622.126V24.3643H617.349V27.1286H621.783V28.6747H617.349V31.4538H622.166V33H615.504ZM626.762 33.1342C626.163 33.1342 625.626 32.9801 625.152 32.6719C624.678 32.3636 624.303 31.9162 624.028 31.3295C623.753 30.7429 623.615 30.0303 623.615 29.1918C623.615 28.3433 623.755 27.6274 624.033 27.044C624.315 26.4574 624.694 26.0149 625.172 25.7166C625.649 25.415 626.181 25.2642 626.767 25.2642C627.215 25.2642 627.583 25.3404 627.871 25.4929C628.159 25.642 628.388 25.8227 628.557 26.0348C628.726 26.2436 628.857 26.4408 628.95 26.6264H629.025V22.8182H630.829V33H629.059V31.7969H628.95C628.857 31.9825 628.723 32.1797 628.547 32.3885C628.372 32.594 628.14 32.7696 627.851 32.9155C627.563 33.0613 627.2 33.1342 626.762 33.1342ZM627.265 31.6577C627.646 31.6577 627.971 31.5549 628.239 31.3494C628.507 31.1406 628.711 30.8506 628.85 30.4794C628.99 30.1082 629.059 29.6757 629.059 29.1818C629.059 28.688 628.99 28.2588 628.85 27.8942C628.715 27.5296 628.512 27.2462 628.244 27.044C627.979 26.8419 627.652 26.7408 627.265 26.7408C626.864 26.7408 626.529 26.8452 626.26 27.054C625.992 27.2628 625.79 27.5511 625.654 27.919C625.518 28.2869 625.45 28.7079 625.45 29.1818C625.45 29.6591 625.518 30.085 625.654 30.4595C625.793 30.8307 625.997 31.1241 626.265 31.3395C626.537 31.5516 626.87 31.6577 627.265 31.6577ZM632.747 33V25.3636H634.547V33H632.747ZM633.652 24.2798C633.367 24.2798 633.122 24.1854 632.916 23.9964C632.711 23.8042 632.608 23.5739 632.608 23.3054C632.608 23.0336 632.711 22.8033 632.916 22.6143C633.122 22.4221 633.367 22.326 633.652 22.326C633.94 22.326 634.185 22.4221 634.388 22.6143C634.593 22.8033 634.696 23.0336 634.696 23.3054C634.696 23.5739 634.593 23.8042 634.388 23.9964C634.185 24.1854 633.94 24.2798 633.652 24.2798ZM640.211 25.3636V26.7557H635.821V25.3636H640.211ZM636.904 23.5341H638.704V30.7031C638.704 30.9451 638.741 31.1307 638.814 31.2599C638.89 31.3859 638.989 31.4721 639.112 31.5185C639.234 31.5649 639.37 31.5881 639.52 31.5881C639.632 31.5881 639.735 31.5798 639.828 31.5632C639.924 31.5466 639.997 31.5317 640.047 31.5185L640.35 32.9254C640.254 32.9586 640.116 32.995 639.937 33.0348C639.761 33.0746 639.546 33.0978 639.291 33.1044C638.84 33.1177 638.434 33.0497 638.073 32.9006C637.712 32.7481 637.425 32.5128 637.213 32.1946C637.004 31.8764 636.901 31.4787 636.904 31.0014V23.5341ZM653.983 26.2536H652.124C652.071 25.9486 651.973 25.6785 651.83 25.4432C651.688 25.2045 651.511 25.0024 651.298 24.8366C651.086 24.6709 650.844 24.5466 650.573 24.4638C650.304 24.3776 650.014 24.3345 649.703 24.3345C649.149 24.3345 648.659 24.4737 648.231 24.7521C647.803 25.0272 647.469 25.4316 647.227 25.9652C646.985 26.4955 646.864 27.1435 646.864 27.9091C646.864 28.688 646.985 29.3442 647.227 29.8778C647.472 30.4081 647.807 30.8092 648.231 31.081C648.659 31.3494 649.147 31.4837 649.698 31.4837C650.003 31.4837 650.288 31.4439 650.553 31.3643C650.821 31.2815 651.061 31.1605 651.274 31.0014C651.489 30.8423 651.67 30.6468 651.816 30.4148C651.965 30.1828 652.067 29.9176 652.124 29.6193L653.983 29.6293C653.914 30.1132 653.763 30.5672 653.531 30.9915C653.302 31.4157 653.002 31.7902 652.631 32.1151C652.26 32.4366 651.825 32.6884 651.328 32.8707C650.831 33.0497 650.279 33.1392 649.673 33.1392C648.778 33.1392 647.979 32.9321 647.276 32.5178C646.574 32.1035 646.02 31.5052 645.616 30.723C645.212 29.9408 645.009 29.0028 645.009 27.9091C645.009 26.812 645.213 25.8741 645.621 25.0952C646.029 24.313 646.584 23.7147 647.286 23.3004C647.989 22.8861 648.785 22.679 649.673 22.679C650.24 22.679 650.767 22.7585 651.254 22.9176C651.741 23.0767 652.175 23.3104 652.556 23.6186C652.937 23.9235 653.251 24.2981 653.496 24.7422C653.744 25.183 653.907 25.6868 653.983 26.2536ZM658.924 33.1491C658.178 33.1491 657.532 32.9851 656.985 32.657C656.438 32.3288 656.014 31.8698 655.712 31.2798C655.414 30.6899 655.265 30.0005 655.265 29.2116C655.265 28.4228 655.414 27.7318 655.712 27.1385C656.014 26.5452 656.438 26.0845 656.985 25.7564C657.532 25.4283 658.178 25.2642 658.924 25.2642C659.669 25.2642 660.316 25.4283 660.863 25.7564C661.409 26.0845 661.832 26.5452 662.13 27.1385C662.432 27.7318 662.583 28.4228 662.583 29.2116C662.583 30.0005 662.432 30.6899 662.13 31.2798C661.832 31.8698 661.409 32.3288 660.863 32.657C660.316 32.9851 659.669 33.1491 658.924 33.1491ZM658.934 31.7074C659.338 31.7074 659.676 31.5964 659.948 31.3743C660.22 31.1489 660.422 30.8473 660.554 30.4695C660.69 30.0916 660.758 29.6707 660.758 29.2067C660.758 28.7393 660.69 28.3168 660.554 27.9389C660.422 27.5578 660.22 27.2545 659.948 27.0291C659.676 26.8037 659.338 26.6911 658.934 26.6911C658.519 26.6911 658.175 26.8037 657.9 27.0291C657.628 27.2545 657.424 27.5578 657.288 27.9389C657.155 28.3168 657.089 28.7393 657.089 29.2067C657.089 29.6707 657.155 30.0916 657.288 30.4695C657.424 30.8473 657.628 31.1489 657.9 31.3743C658.175 31.5964 658.519 31.7074 658.934 31.7074ZM670.672 25.3636L667.952 33H665.963L663.244 25.3636H665.163L666.918 31.0362H666.998L668.757 25.3636H670.672ZM675.038 33.1491C674.272 33.1491 673.611 32.9901 673.054 32.6719C672.501 32.3504 672.075 31.8963 671.776 31.3097C671.478 30.7197 671.329 30.0253 671.329 29.2266C671.329 28.4411 671.478 27.7517 671.776 27.1584C672.078 26.5618 672.499 26.0978 673.039 25.7663C673.579 25.4316 674.214 25.2642 674.943 25.2642C675.414 25.2642 675.858 25.3404 676.276 25.4929C676.697 25.642 677.068 25.8741 677.389 26.1889C677.714 26.5038 677.969 26.9048 678.155 27.392C678.341 27.8759 678.433 28.4527 678.433 29.1222V29.674H672.174V28.4609H676.708C676.705 28.1162 676.63 27.8097 676.485 27.5412C676.339 27.2694 676.135 27.0556 675.873 26.8999C675.615 26.7441 675.313 26.6662 674.968 26.6662C674.6 26.6662 674.277 26.7557 673.999 26.9347C673.72 27.1103 673.503 27.3423 673.347 27.6307C673.195 27.9157 673.117 28.2289 673.114 28.5703V29.6293C673.114 30.0734 673.195 30.4545 673.357 30.7727C673.52 31.0876 673.747 31.3295 674.039 31.4986C674.33 31.6643 674.672 31.7472 675.063 31.7472C675.325 31.7472 675.561 31.7107 675.774 31.6378C675.986 31.5616 676.17 31.4505 676.325 31.3047C676.481 31.1589 676.599 30.9782 676.678 30.7628L678.359 30.9517C678.253 31.3958 678.051 31.7836 677.752 32.1151C677.457 32.4432 677.079 32.6984 676.619 32.8807C676.158 33.0597 675.631 33.1491 675.038 33.1491ZM679.956 33V25.3636H681.701V26.6364H681.781C681.92 26.1955 682.158 25.8558 682.496 25.6172C682.838 25.3752 683.227 25.2543 683.665 25.2543C683.764 25.2543 683.875 25.2592 683.998 25.2692C684.124 25.2758 684.228 25.2874 684.311 25.304V26.9595C684.235 26.933 684.114 26.9098 683.948 26.8899C683.786 26.8667 683.628 26.8551 683.476 26.8551C683.148 26.8551 682.853 26.9264 682.591 27.0689C682.332 27.2081 682.129 27.402 681.979 27.6506C681.83 27.8991 681.756 28.1858 681.756 28.5107V33H679.956Z" fill="#DAFB6A"/>
</g>
<defs>
<clipPath id="clip0_4630_209945">
<rect width="720" height="184" rx="8" fill="white"/>
</clipPath>
</defs>
</svg>
