<svg width="56" height="56" viewBox="0 0 56 56" fill="none" xmlns="http://www.w3.org/2000/svg">
<rect width="56" height="56" rx="28" fill="#D0FC4A"/>
<path d="M26.2495 29.7502L38.4995 17.5002M26.3984 30.1329L29.4645 38.0173C29.7346 38.7118 29.8697 39.0591 30.0643 39.1605C30.233 39.2484 30.4339 39.2485 30.6027 39.1608C30.7974 39.0597 30.9329 38.7126 31.2038 38.0183L38.8926 18.3159C39.1371 17.6892 39.2594 17.3759 39.1925 17.1756C39.1344 17.0017 38.998 16.8653 38.8241 16.8072C38.6239 16.7403 38.3105 16.8626 37.6838 17.1072L17.9814 24.7959C17.2872 25.0668 16.94 25.2023 16.8389 25.397C16.7512 25.5658 16.7513 25.7668 16.8392 25.9355C16.9406 26.1301 17.2879 26.2651 17.9824 26.5352L25.8668 29.6014C26.0078 29.6562 26.0783 29.6836 26.1376 29.7259C26.1902 29.7635 26.2363 29.8095 26.2738 29.8621C26.3161 29.9215 26.3435 29.992 26.3984 30.1329Z" stroke="#4B48EC" stroke-width="2" stroke-linecap="round" stroke-linejoin="round"/>
</svg>
