<svg width="26" height="26" viewBox="0 0 26 26" fill="none" xmlns="http://www.w3.org/2000/svg">
<path d="M11.2495 14.7502L23.4995 2.5002M11.3984 15.1329L14.4645 23.0173C14.7346 23.7118 14.8697 24.0591 15.0643 24.1605C15.233 24.2484 15.4339 24.2485 15.6027 24.1608C15.7974 24.0597 15.9329 23.7126 16.2038 23.0183L23.8926 3.31593C24.1371 2.68922 24.2594 2.37587 24.1925 2.17563C24.1344 2.00174 23.998 1.86528 23.8241 1.80719C23.6239 1.7403 23.3105 1.86258 22.6838 2.10715L2.98142 9.79588C2.28717 10.0668 1.94004 10.2023 1.83888 10.397C1.75119 10.5658 1.7513 10.7668 1.8392 10.9355C1.94059 11.1301 2.28787 11.2651 2.98244 11.5352L10.8668 14.6014C11.0078 14.6562 11.0783 14.6836 11.1376 14.7259C11.1902 14.7635 11.2363 14.8095 11.2738 14.8621C11.3161 14.9215 11.3435 14.992 11.3984 15.1329Z" stroke="#4B48EC" stroke-width="2" stroke-linecap="round" stroke-linejoin="round"/>
</svg>
