<svg width="24" height="24" viewBox="0 0 24 24" fill="none" xmlns="http://www.w3.org/2000/svg">
<g id="bx:at">
<path id="Vector" d="M12.0008 1.7998C6.3765 1.7998 1.80078 6.37552 1.80078 11.9998C1.80078 17.6241 6.3765 22.1998 12.0008 22.1998C13.4961 22.1998 15.021 21.8214 16.5316 21.0737L15.6289 19.2449C14.4008 19.8518 13.1799 20.1598 12.0008 20.1598C7.50156 20.1598 3.84078 16.499 3.84078 11.9998C3.84078 7.50058 7.50156 3.8398 12.0008 3.8398C16.5 3.8398 20.1608 7.50058 20.1608 11.9998V13.0198C20.1608 13.7256 19.8415 15.0598 18.6308 15.0598C17.2069 15.0598 17.1069 13.2044 17.1008 13.0198V7.9198H15.0608V7.9453C14.1828 7.27103 13.1078 6.90372 12.0008 6.8998C9.18864 6.8998 6.90078 9.18766 6.90078 11.9998C6.90078 14.8119 9.18864 17.0998 12.0008 17.0998C13.4798 17.0998 14.8037 16.4562 15.736 15.4464C16.2705 16.3542 17.1722 17.0998 18.6308 17.0998C20.9492 17.0998 22.2008 14.9976 22.2008 13.0198V11.9998C22.2008 6.37552 17.6251 1.7998 12.0008 1.7998ZM12.0008 15.0598C10.3137 15.0598 8.94078 13.6869 8.94078 11.9998C8.94078 10.3127 10.3137 8.9398 12.0008 8.9398C13.6879 8.9398 15.0608 10.3127 15.0608 11.9998C15.0608 13.6869 13.6879 15.0598 12.0008 15.0598Z" fill="#475467"/>
</g>
</svg>
