<svg width="16" height="16" viewBox="0 0 16 16" fill="none" xmlns="http://www.w3.org/2000/svg">
<g id="check (1) 1" clip-path="url(#clip0_6280_4199)">
<path id="Vector" fill-rule="evenodd" clip-rule="evenodd" d="M8.00003 16C12.4113 16 16 12.4111 16 7.99999C16 3.58899 12.4113 -4.57764e-05 8.00003 -4.57764e-05C3.58881 -4.57764e-05 0 3.58899 0 7.99999C0 12.4111 3.58881 16 8.00003 16ZM12.5225 6.04777L7.40606 11.1642C7.24531 11.3249 7.02728 11.4154 6.79997 11.4154C6.57266 11.4154 6.35463 11.3249 6.19391 11.1642L3.47747 8.4478C3.14294 8.11327 3.14284 7.5702 3.47756 7.23574C3.81234 6.90124 4.35494 6.90114 4.68962 7.2358L6.79997 9.34595L11.3103 4.83583C11.645 4.50117 12.1877 4.50124 12.5224 4.83577C12.857 5.17024 12.8571 5.7132 12.5225 6.04777Z" fill="#039855"/>
</g>
<defs>
<clipPath id="clip0_6280_4199">
<rect width="16" height="16" fill="white"/>
</clipPath>
</defs>
</svg>
