<svg width="21" height="20" viewBox="0 0 21 20" fill="none" xmlns="http://www.w3.org/2000/svg">
<g id="edit-02">
<path id="Icon" d="M15.4997 8.33424L12.1664 5.0009M2.58301 17.9176L5.40331 17.6042C5.74789 17.5659 5.92018 17.5468 6.08121 17.4946C6.22408 17.4484 6.36005 17.383 6.48541 17.3004C6.62672 17.2072 6.7493 17.0846 6.99445 16.8395L17.9997 5.83424C18.9202 4.91376 18.9202 3.42138 17.9997 2.5009C17.0792 1.58043 15.5868 1.58043 14.6664 2.5009L3.66112 13.5061C3.41596 13.7513 3.29339 13.8739 3.20021 14.0152C3.11753 14.1405 3.05219 14.2765 3.00594 14.4194C2.9538 14.5804 2.93466 14.7527 2.89637 15.0973L2.58301 17.9176Z" stroke="#384250" stroke-width="1.66667" stroke-linecap="round" stroke-linejoin="round"/>
</g>
</svg>
