<svg width="16" height="16" viewBox="0 0 16 16" fill="none" xmlns="http://www.w3.org/2000/svg">
<g id="Icon">
<g id="Group">
<g id="Group_2">
<path id="Vector" d="M13.6904 8.54126H12.453C12.5791 8.88657 12.648 9.25923 12.648 9.64764V14.3242C12.648 14.4861 12.6198 14.6416 12.5686 14.7861H14.6142C15.3784 14.7861 16 14.1645 16 13.4003V10.8509C16.0001 9.57739 14.9639 8.54126 13.6904 8.54126Z" fill="#039855"/>
</g>
</g>
<g id="Group_3">
<g id="Group_4">
<path id="Vector_2" d="M3.35204 9.64768C3.35204 9.25924 3.42094 8.88662 3.54707 8.54131H2.30969C1.03613 8.54131 0 9.57743 0 10.851V13.4004C0 14.1645 0.621657 14.7862 1.38582 14.7862H3.43151C3.38022 14.6416 3.35204 14.4862 3.35204 14.3243V9.64768Z" fill="#039855"/>
</g>
</g>
<g id="Group_5">
<g id="Group_6">
<path id="Vector_3" d="M9.41439 7.33798H6.58557C5.31201 7.33798 4.27588 8.37411 4.27588 9.64767V14.3242C4.27588 14.5793 4.48269 14.7862 4.73782 14.7862H11.2621C11.5173 14.7862 11.7241 14.5794 11.7241 14.3242V9.64767C11.7241 8.37411 10.688 7.33798 9.41439 7.33798Z" fill="#039855"/>
</g>
</g>
<g id="Group_7">
<g id="Group_8">
<path id="Vector_4" d="M7.99998 1.21375C6.46836 1.21375 5.22229 2.45981 5.22229 3.99147C5.22229 5.03038 5.7957 5.93772 6.64251 6.4141C7.04417 6.64004 7.50723 6.76916 7.99998 6.76916C8.49273 6.76916 8.9558 6.64004 9.35745 6.4141C10.2043 5.93772 10.7777 5.03035 10.7777 3.99147C10.7777 2.45984 9.53161 1.21375 7.99998 1.21375Z" fill="#039855"/>
</g>
</g>
<g id="Group_9">
<g id="Group_10">
<path id="Vector_5" d="M3.12239 3.8028C1.97692 3.8028 1.04504 4.73467 1.04504 5.88014C1.04504 7.02561 1.97692 7.95749 3.12239 7.95749C3.41295 7.95749 3.68964 7.8973 3.94099 7.78912C4.37555 7.60202 4.73386 7.27083 4.95558 6.85599C5.11121 6.56483 5.19974 6.23267 5.19974 5.88014C5.19974 4.7347 4.26786 3.8028 3.12239 3.8028Z" fill="#039855"/>
</g>
</g>
<g id="Group_11">
<g id="Group_12">
<path id="Vector_6" d="M12.8776 3.8028C11.7322 3.8028 10.8003 4.73467 10.8003 5.88014C10.8003 6.23271 10.8888 6.56486 11.0445 6.85599C11.2662 7.27086 11.6245 7.60205 12.059 7.78912C12.3104 7.8973 12.5871 7.95749 12.8776 7.95749C14.0231 7.95749 14.955 7.02561 14.955 5.88014C14.955 4.73467 14.0231 3.8028 12.8776 3.8028Z" fill="#039855"/>
</g>
</g>
</g>
</svg>
